<svg xmlns="http://www.w3.org/2000/svg" xmlns:xlink="http://www.w3.org/1999/xlink" width="500" zoomAndPan="magnify" viewBox="0 0 375 374.999991" height="500" preserveAspectRatio="xMidYMid meet" version="1.2"><defs><clipPath id="fd2ba0f062"><path d="M 240.234375 150.292969 L 310.546875 150.292969 L 310.546875 220.605469 L 240.234375 220.605469 Z M 240.234375 150.292969 "/></clipPath><clipPath id="559e94702f"><path d="M 275.390625 150.292969 C 255.972656 150.292969 240.234375 166.03125 240.234375 185.449219 C 240.234375 204.867188 255.972656 220.605469 275.390625 220.605469 C 294.808594 220.605469 310.546875 204.867188 310.546875 185.449219 C 310.546875 166.03125 294.808594 150.292969 275.390625 150.292969 Z M 275.390625 150.292969 "/></clipPath><clipPath id="c333f5a630"><path d="M 72.65625 162.597656 L 118.359375 162.597656 L 118.359375 208.300781 L 72.65625 208.300781 Z M 72.65625 162.597656 "/></clipPath><clipPath id="ea8d96b5b2"><path d="M 95.507812 162.597656 C 82.886719 162.597656 72.65625 172.828125 72.65625 185.449219 C 72.65625 198.070312 82.886719 208.300781 95.507812 208.300781 C 108.128906 208.300781 118.359375 198.070312 118.359375 185.449219 C 118.359375 172.828125 108.128906 162.597656 95.507812 162.597656 Z M 95.507812 162.597656 "/></clipPath><clipPath id="5ac6d69972"><path d="M 163.769531 150.292969 L 211.230469 150.292969 L 211.230469 197.753906 L 163.769531 197.753906 Z M 163.769531 150.292969 "/></clipPath><clipPath id="9008a09927"><path d="M 187.5 150.292969 C 174.394531 150.292969 163.769531 160.917969 163.769531 174.023438 C 163.769531 187.128906 174.394531 197.753906 187.5 197.753906 C 200.605469 197.753906 211.230469 187.128906 211.230469 174.023438 C 211.230469 160.917969 200.605469 150.292969 187.5 150.292969 Z M 187.5 150.292969 "/></clipPath></defs><g id="5e4650d902"><g clip-rule="nonzero" clip-path="url(#fd2ba0f062)"><g clip-rule="nonzero" clip-path="url(#559e94702f)"><path style=" stroke:none;fill-rule:nonzero;fill:#e94560;fill-opacity:1;" d="M 240.234375 150.292969 L 310.546875 150.292969 L 310.546875 220.605469 L 240.234375 220.605469 Z M 240.234375 150.292969 "/></g></g><g clip-rule="nonzero" clip-path="url(#c333f5a630)"><g clip-rule="nonzero" clip-path="url(#ea8d96b5b2)"><path style=" stroke:none;fill-rule:nonzero;fill:#e94560;fill-opacity:1;" d="M 72.65625 162.597656 L 118.359375 162.597656 L 118.359375 208.300781 L 72.65625 208.300781 Z M 72.65625 162.597656 "/></g></g><g clip-rule="nonzero" clip-path="url(#5ac6d69972)"><g clip-rule="nonzero" clip-path="url(#9008a09927)"><path style=" stroke:none;fill-rule:nonzero;fill:#e94560;fill-opacity:1;" d="M 163.769531 150.292969 L 211.230469 150.292969 L 211.230469 197.753906 L 163.769531 197.753906 Z M 163.769531 150.292969 "/></g></g><g style="fill:#f9f9f9;fill-opacity:1;"><g transform="translate(49.392702, 225.585924)"><path style="stroke:none" d="M 62.984375 -13.375 L 33.5 -13.375 L 29.125 0 L 0 0 L 32.375 -88.484375 L 64.359375 -88.484375 L 96.609375 0 L 67.359375 0 Z M 56.25 -34.25 L 48.25 -58.875 L 40.25 -34.25 Z M 56.25 -34.25 "/></g></g><g style="fill:#f9f9f9;fill-opacity:1;"><g transform="translate(145.994512, 225.585924)"><path style="stroke:none" d="M 78.609375 -58.125 C 78.609375 -52.539062 77.316406 -47.476562 74.734375 -42.9375 C 72.148438 -38.394531 68.335938 -34.789062 63.296875 -32.125 C 58.265625 -29.457031 52.164062 -28.125 45 -28.125 L 34 -28.125 L 34 0 L 6.25 0 L 6.25 -88.484375 L 45 -88.484375 C 55.832031 -88.484375 64.140625 -85.734375 69.921875 -80.234375 C 75.710938 -74.734375 78.609375 -67.363281 78.609375 -58.125 Z M 41.875 -50 C 47.625 -50 50.5 -52.707031 50.5 -58.125 C 50.5 -63.53125 47.625 -66.234375 41.875 -66.234375 L 34 -66.234375 L 34 -50 Z M 41.875 -50 "/></g></g><g style="fill:#f9f9f9;fill-opacity:1;"><g transform="translate(227.100038, 225.585924)"><path style="stroke:none" d="M 64.484375 14.375 L 56 0.375 C 54.082031 0.707031 51.875 0.875 49.375 0.875 C 41.039062 0.875 33.394531 -1.082031 26.4375 -5 C 19.476562 -8.914062 13.957031 -14.332031 9.875 -21.25 C 5.789062 -28.164062 3.75 -35.957031 3.75 -44.625 C 3.75 -53.289062 5.789062 -61.078125 9.875 -67.984375 C 13.957031 -74.898438 19.476562 -80.296875 26.4375 -84.171875 C 33.394531 -88.046875 41.039062 -89.984375 49.375 -89.984375 C 57.707031 -89.984375 65.328125 -88.046875 72.234375 -84.171875 C 79.148438 -80.296875 84.628906 -74.898438 88.671875 -67.984375 C 92.710938 -61.078125 94.734375 -53.289062 94.734375 -44.625 C 94.734375 -37.539062 93.359375 -31.019531 90.609375 -25.0625 C 87.859375 -19.101562 84.066406 -14.039062 79.234375 -9.875 L 97.234375 14.375 Z M 32 -44.625 C 32 -38.625 33.5 -33.851562 36.5 -30.3125 C 39.5 -26.769531 43.789062 -25 49.375 -25 C 54.875 -25 59.117188 -26.769531 62.109375 -30.3125 C 65.109375 -33.851562 66.609375 -38.625 66.609375 -44.625 C 66.609375 -50.707031 65.109375 -55.515625 62.109375 -59.046875 C 59.117188 -62.585938 54.875 -64.359375 49.375 -64.359375 C 43.789062 -64.359375 39.5 -62.585938 36.5 -59.046875 C 33.5 -55.515625 32 -50.707031 32 -44.625 Z M 32 -44.625 "/></g></g></g></svg>